<?xml version="1.0" encoding="UTF-8"?>
<svg viewBox="0 0 500 500" xmlns="http://www.w3.org/2000/svg">
 <g transform="matrix(8.3333 0 0 8.3333 -489.45 -2.8791)" fill-rule="evenodd" font-size="12" stroke="#000" stroke-width=".3">
  <path d="m90,45.7143 .8264,2.5696 2.5243-.956-1.4937,2.2482 2.3213,1.3776-2.6891.2339 .3703,2.6737-1.8595-1.9565-1.8595,1.9565 .3703-2.6737-2.6891-.2339 2.3213-1.3776-1.4937-2.2482 2.5243.956 .8264-2.5696z"/>
  <path d="m90,5.71429 .8264,2.56958 2.5243-.95597-1.4937,2.24825 2.3213,1.37755-2.6891.2339 .3703,2.6737-1.8595-1.9565-1.8595,1.9565 .3703-2.6737-2.6891-.2339 2.3213-1.37755-1.4937-2.24825 2.5243.95597 .8264-2.56958z"/>
  <path d="m75,21.9643 .8264,2.5696 2.5243-.956-1.4937,2.2483 2.3213,1.3775-2.6891.2339 .3703,2.6737-1.8595-1.9565-1.8595,1.9565 .3703-2.6737-2.6891-.2339 2.3213-1.3775-1.4937-2.2483 2.5243.956 .8264-2.5696z"/>
  <path d="m103.333,17.9643 .827,2.5696 2.524-.956-1.494,2.2483 2.322,1.3775-2.689.2339 .37,2.6737-1.86-1.9565-1.859,1.9565 .37-2.6737-2.6889-.2339 2.3209-1.3775-1.4934-2.2483 2.5244.956 .826-2.5696z"/>
  <path d="m96,30 .6531,1.6011 1.7245.1264-1.3209,1.1159 .4128,1.6791-1.4695-.9114-1.4695.9114 .4128-1.6791-1.3209-1.1159 1.7245-.1264 .6531-1.6011z"/>
 </g>
</svg>
